<svg id="Layer_1" data-name="Layer 1" xmlns="http://www.w3.org/2000/svg" xmlns:xlink="http://www.w3.org/1999/xlink" viewBox="0 0 843.5654 209.6946"><defs><linearGradient id="GradientFill_1" x1="605.0107" y1="585.4298" x2="605.9871" y2="538.3777" gradientUnits="userSpaceOnUse"><stop offset="0" stop-color="#9e812e"/><stop offset="1" stop-color="#e8c457"/></linearGradient><linearGradient id="GradientFill_1-2" x1="620.8288" y1="577.1881" x2="620.7823" y2="565.5157" xlink:href="#GradientFill_1"/><linearGradient id="GradientFill_1-3" x1="620.4027" y1="583.3382" x2="620.8925" y2="574.1841" xlink:href="#GradientFill_1"/><linearGradient id="GradientFill_1-4" x1="619.4433" y1="588.2895" x2="620.1492" y2="581.7396" xlink:href="#GradientFill_1"/><linearGradient id="GradientFill_1-5" x1="618.9558" y1="592.8975" x2="619.5646" y2="588.0533" xlink:href="#GradientFill_1"/><linearGradient id="GradientFill_1-6" x1="596.5928" y1="583.1949" x2="594.1533" y2="578.7294" xlink:href="#GradientFill_1"/><linearGradient id="GradientFill_1-7" x1="597.1367" y1="587.9695" x2="595.2522" y2="584.7307" xlink:href="#GradientFill_1"/><linearGradient id="GradientFill_1-8" x1="596.5914" y1="592.173" x2="595.0399" y2="588.8565" xlink:href="#GradientFill_1"/><linearGradient id="GradientFill_1-9" x1="595.5562" y1="578.8286" x2="593.4673" y2="574.3783" xlink:href="#GradientFill_1"/></defs><path d="M817.39,511.6631c-.18-3.0508-.3945-6.7183-.3584-9.4443h-.1074c-.8232,2.5639-1.8252,5.29-3.0429,8.3085l-4.26,10.6128h-2.3623l-3.9024-10.4179c-1.1455-3.0835-2.1113-5.9073-2.7919-8.5034h-.0713c-.0713,2.726-.251,6.3935-.4659,9.6718l-.6435,9.3794h-2.9717l1.6826-21.875h3.9737l4.1162,10.5806c1.0029,2.6938,1.8261,5.0952,2.4345,7.3672h.1075a77.7017,77.7017,0,0,1,2.541-7.3672l4.2959-10.5806h3.9736l1.5039,21.875h-3.043Z" transform="translate(-173.5371 -460.2513)"/><path d="M842.4736,511.0142h-9.3789v7.8867h10.4532V521.27H829.9805V499.395h13.03v2.3692h-9.916v6.913h9.3789Z" transform="translate(-173.5371 -460.2513)"/><path d="M851.7363,499.395h3.1143v19.5059h10.31V521.27H851.7363Z" transform="translate(-173.5371 -460.2513)"/><path d="M872.7764,499.687a33.2331,33.2331,0,0,1,5.6914-.4541c3.1142,0,5.1191.4868,6.623,1.59a4.443,4.443,0,0,1,2.0039,3.8619c0,2.11-1.539,3.96-4.08,4.8037v.0649c2.2911.5191,4.9756,2.2393,4.9756,5.4849a5.6487,5.6487,0,0,1-2.041,4.3813c-1.6816,1.3955-4.4023,2.0449-8.3408,2.0449a40.0794,40.0794,0,0,1-4.832-.26Zm3.1142,8.958h2.8282c3.2929,0,5.2265-1.5581,5.2265-3.6675,0-2.5639-2.1484-3.57-5.2988-3.57a14.7018,14.7018,0,0,0-2.7559.1949Zm0,10.4829a18.359,18.359,0,0,0,2.6133.13c3.2217,0,6.1924-1.0713,6.1924-4.2515,0-2.9863-2.8272-4.2192-6.2285-4.2192h-2.5772Z" transform="translate(-173.5371 -460.2513)"/><path d="M916.9414,510.1055c0,7.5293-5.0478,11.5215-11.2051,11.5215-6.3711,0-10.8457-4.4791-10.8457-11.1,0-6.9453,4.7608-11.4892,11.2041-11.4892C912.6816,499.0381,916.9414,503.6143,916.9414,510.1055Zm-18.7217.3569c0,4.6733,2.792,8.86,7.6963,8.86,4.9395,0,7.7324-4.1221,7.7324-9.0874,0-4.3492-2.5058-8.8931-7.6972-8.8931C900.7969,501.3423,898.22,505.6592,898.22,510.4624Z" transform="translate(-173.5371 -460.2513)"/><path d="M928.2441,499.395v12.95c0,4.9009,2.3985,6.9781,5.62,6.9781,3.58,0,5.8711-2.1421,5.8711-6.9781v-12.95h3.1494V512.15c0,6.7183-3.9014,9.4771-9.128,9.4771-4.94,0-8.663-2.564-8.663-9.3472V499.395Z" transform="translate(-173.5371 -460.2513)"/><path d="M952.4336,499.687a35.7055,35.7055,0,0,1,5.9775-.4541c3.3291,0,5.4776.5518,6.9805,1.7847a5.2126,5.2126,0,0,1,1.8975,4.1543c0,2.8886-2.0049,4.8037-4.5459,5.5825v.0977c1.8613.5839,2.9707,2.1416,3.5439,4.4135a32.362,32.362,0,0,0,1.8613,6.0044h-3.2216a26.3919,26.3919,0,0,1-1.6114-5.2251c-.7158-3.0185-2.0039-4.1543-4.832-4.2519h-2.9355v9.477h-3.1143Zm3.1143,9.9639h3.1855c3.3291,0,5.4414-1.6553,5.4414-4.1543,0-2.8237-2.2549-4.0567-5.5488-4.0894a14.0719,14.0719,0,0,0-3.0781.26Z" transform="translate(-173.5371 -460.2513)"/><path d="M975.8369,521.27V499.395h3.4l7.7324,11.0674a60.3878,60.3878,0,0,1,4.3311,7.1079l.0722-.0327a88.0268,88.0268,0,0,1-.3584-8.99V499.395H993.95V521.27H990.8l-7.66-11.1a67.8369,67.8369,0,0,1-4.5107-7.3027l-.1074.0327c.1787,2.7588.251,5.3877.251,9.0225V521.27Z" transform="translate(-173.5371 -460.2513)"/><path d="M1016.0283,511.0142h-9.3789v7.8867h10.4531V521.27h-13.5673V499.395h13.03v2.3692h-9.916v6.913h9.3789Z" transform="translate(-173.5371 -460.2513)"/><path d="M813.917,553.0112a16.859,16.859,0,0,1-6.3721,1.0386c-6.8017,0-11.92-3.895-11.92-11.0674,0-6.8481,5.1182-11.4892,12.6006-11.4892a14.0718,14.0718,0,0,1,5.7275.9736l-.7519,2.3042a12.3493,12.3493,0,0,0-4.8682-.9087c-5.6562,0-9.415,3.2778-9.415,9.0225,0,5.3554,3.4,8.7954,9.2715,8.7954a13.58,13.58,0,0,0,5.083-.9087Z" transform="translate(-173.5371 -460.2513)"/><path d="M834.4561,543.4692h-9.379v7.8868H835.53v2.3691H821.9629V531.85h13.03v2.3691h-9.9161v6.9131h9.379Z" transform="translate(-173.5371 -460.2513)"/><path d="M843.7178,553.7251V531.85h3.4l7.7324,11.0674a60.3833,60.3833,0,0,1,4.331,7.1079l.0723-.0327a88.0277,88.0277,0,0,1-.3584-8.99V531.85h2.9356v21.875h-3.15l-7.66-11.1a67.8369,67.8369,0,0,1-4.5107-7.3027l-.1075.0327c.1788,2.7588.251,5.3877.251,9.0224v9.3472Z" transform="translate(-173.5371 -460.2513)"/><path d="M875.998,534.252h-7.3388V531.85h17.8633v2.4019h-7.3741v19.4731h-3.15Z" transform="translate(-173.5371 -460.2513)"/><path d="M893.3516,532.1421a35.7047,35.7047,0,0,1,5.9775-.4541c3.3291,0,5.4775.5517,6.9805,1.7847a5.2128,5.2128,0,0,1,1.8974,4.1543c0,2.8886-2.0049,4.8037-4.5459,5.5825v.0976c1.8614.584,2.9707,2.1416,3.544,4.4136a32.3567,32.3567,0,0,0,1.8613,6.0044h-3.2217a26.4015,26.4015,0,0,1-1.6113-5.2251c-.7158-3.0186-2.0039-4.1543-4.832-4.252h-2.9356v9.4771h-3.1142Zm3.1142,9.9639h3.1856c3.3291,0,5.4414-1.6553,5.4414-4.1543,0-2.8238-2.2549-4.0567-5.5489-4.0894a14.0734,14.0734,0,0,0-3.0781.26Z" transform="translate(-173.5371 -460.2513)"/><path d="M929.2471,543.4692h-9.3789v7.8868h10.4531v2.3691H916.7539V531.85h13.03v2.3691h-9.916v6.9131h9.3789Z" transform="translate(-173.5371 -460.2513)"/><path d="M797.0566,564.3057h12.9942v2.3691h-9.88v7.27h9.1279v2.3369h-9.1279v9.8985h-3.1143Z" transform="translate(-173.5371 -460.2513)"/><path d="M839.2529,575.0156c0,7.53-5.0478,11.5225-11.205,11.5225-6.3711,0-10.8458-4.48-10.8458-11.1006,0-6.9453,4.7608-11.4888,11.2041-11.4888C834.9932,563.9487,839.2529,568.5254,839.2529,575.0156Zm-18.7217.3574c0,4.6739,2.792,8.86,7.6963,8.86,4.94,0,7.7315-4.1221,7.7315-9.0879,0-4.3486-2.5049-8.8926-7.6963-8.8926C823.1084,566.2529,820.5312,570.5693,820.5312,575.373Z" transform="translate(-173.5371 -460.2513)"/><path d="M847.4414,564.5977a35.7055,35.7055,0,0,1,5.9775-.4541c3.3291,0,5.4776.5517,6.9805,1.7851a5.2119,5.2119,0,0,1,1.8975,4.1543c0,2.8887-2.0049,4.8027-4.5459,5.582v.0977c1.8613.584,2.9707,2.1416,3.5439,4.4141a32.3578,32.3578,0,0,0,1.8613,6.0039h-3.2216a26.3792,26.3792,0,0,1-1.6114-5.2256c-.7158-3.0186-2.0039-4.1543-4.832-4.251h-2.9355v9.4766h-3.1143Zm3.1143,9.9638h3.1855c3.3291,0,5.4414-1.6553,5.4414-4.1543,0-2.8232-2.2549-4.0566-5.5488-4.0893a14.0811,14.0811,0,0,0-3.0781.26Z" transform="translate(-173.5371 -460.2513)"/><path d="M797.0566,597.0527a49.1072,49.1072,0,0,1,6.6221-.4541c4.4746,0,7.6611.9414,9.7725,2.7266a9.6153,9.6153,0,0,1,3.4013,7.8535,10.9882,10.9882,0,0,1-3.4726,8.5039c-2.2549,2.044-5.9776,3.1475-10.667,3.1475a55.4784,55.4784,0,0,1-5.6563-.2588Zm3.1143,19.3438a21.6508,21.6508,0,0,0,3.15.1621c6.6582,0,10.2734-3.375,10.2734-9.2822.0362-5.16-3.1855-8.4385-9.7724-8.4385a19.4756,19.4756,0,0,0-3.6514.292Z" transform="translate(-173.5371 -460.2513)"/><path d="M837.5342,608.38h-9.3789v7.8867h10.4531v2.3691H825.041v-21.875h13.03V599.13h-9.916v6.9131h9.3789Z" transform="translate(-173.5371 -460.2513)"/><path d="M846.7969,618.6357v-21.875h3.4l7.7324,11.0674a60.3964,60.3964,0,0,1,4.331,7.1074l.0723-.0322a88.0208,88.0208,0,0,1-.3584-8.99v-9.1524H864.91v21.875h-3.15l-7.66-11.1a67.8761,67.8761,0,0,1-4.5107-7.3027l-.1075.0322c.1788,2.7588.251,5.3877.251,9.0235v9.3466Z" transform="translate(-173.5371 -460.2513)"/><path d="M879.0762,599.1621h-7.3389v-2.4014h17.8633v2.4014h-7.374v19.4736h-3.15Z" transform="translate(-173.5371 -460.2513)"/><path d="M899.5439,596.7607v21.875H896.43v-21.875Z" transform="translate(-173.5371 -460.2513)"/><path d="M908.6992,615.1953a11.8881,11.8881,0,0,0,5.584,1.4277c3.1865,0,5.0479-1.5253,5.0479-3.7314,0-2.0449-1.2891-3.2139-4.5459-4.35-3.9385-1.2656-6.3721-3.1152-6.3721-6.1992,0-3.4073,3.1142-5.94,7.8037-5.94a11.8935,11.8935,0,0,1,5.334,1.0713l-.8594,2.3047a10.3821,10.3821,0,0,0-4.582-1.0391c-3.294,0-4.5469,1.7852-4.5469,3.2784,0,2.0449,1.4678,3.0507,4.7969,4.2187,4.081,1.4287,6.1572,3.2139,6.1572,6.4268,0,3.375-2.7559,6.2959-8.4482,6.2959a13.4787,13.4787,0,0,1-6.1563-1.3955Z" transform="translate(-173.5371 -460.2513)"/><path d="M935.5029,599.1621h-7.3388v-2.4014h17.8632v2.4014h-7.374v19.4736h-3.15Z" transform="translate(-173.5371 -460.2513)"/><path d="M952.8564,597.0527a35.7059,35.7059,0,0,1,5.9776-.4541c3.33,0,5.4775.5518,6.9805,1.7852a5.2121,5.2121,0,0,1,1.8974,4.1543c0,2.8887-2.0049,4.8027-4.5459,5.582v.0977c1.8613.584,2.9707,2.1416,3.544,4.414a32.3444,32.3444,0,0,0,1.8613,6.0039H965.35a26.38,26.38,0,0,1-1.6113-5.2255c-.7158-3.0186-2.0039-4.1543-4.8321-4.251h-2.9355v9.4765h-3.1143Zm3.1143,9.9639h3.1855c3.3292,0,5.4415-1.6553,5.4415-4.1543,0-2.8232-2.2549-4.0566-5.5489-4.0889a14.0933,14.0933,0,0,0-3.0781.2588Z" transform="translate(-173.5371 -460.2513)"/><path d="M981.2344,618.6357v-9.2822l-7.624-12.5928h3.5439l3.4,6.0372c.9307,1.6552,1.6465,2.9853,2.3984,4.5107h.0713c.6807-1.4277,1.5039-2.8555,2.4346-4.5107l3.4717-6.0372h3.5439l-8.09,12.5606v9.3144Z" transform="translate(-173.5371 -460.2513)"/><rect x="577.2741" width="6.3466" height="209.6946"/><path d="M288.6973,572.5449c-.9825-18.8725-2.1621-41.56-1.9659-58.4253h-.5888c-4.5205,15.8614-10.0225,32.7261-16.7041,51.3985l-23.3858,65.6538H233.082l-21.42-64.4492c-6.2891-19.0738-11.5947-36.5411-15.3281-52.6031H195.94c-.3925,16.8653-1.3759,39.5528-2.5547,59.8306l-3.5371,58.0244H173.5371l9.2363-135.3223h21.8135l22.6,65.4527c5.503,16.6645,10.0225,31.522,13.3633,45.5757h.59c3.3409-13.6524,8.0577-28.51,13.9532-45.5757l23.582-65.4527h21.8135l8.2539,135.3223H292.0381Z" transform="translate(-173.5371 -460.2513)"/><path d="M444.6582,627.5576c-6.2881,3.2119-18.8652,6.4248-34.98,6.4248-37.3389,0-65.44-24.0928-65.44-68.4643,0-42.3638,28.1015-71.0743,69.1738-71.0743,16.5078,0,26.9229,3.6138,31.4434,6.023l-4.127,14.2549C434.2432,511.51,425.0068,509.1,414.002,509.1c-31.05,0-51.6846,20.2783-51.6846,55.8154,0,33.1284,18.67,54.4107,50.8984,54.4107,10.4151,0,21.0274-2.209,27.9053-5.6221Z" transform="translate(-173.5371 -460.2513)"/><path d="M482.3418,496.6523h71.3359v14.6563H499.4385v44.9736h50.1123v14.4561H499.4385v61.2363H482.3418Z" transform="translate(-173.5371 -460.2513)"/><path d="M719.5214,565.287a63.2929,63.2929,0,0,1-6.19,27.7057,72.3813,72.3813,0,0,1-16.8024,22.5395,79.0056,79.0056,0,0,1-24.9582,15.1452c-9.5641,3.6827-30.4605,5.2391-30.4605,5.2391h-25.743s-1.67.3441-2.26-.25a2.1078,2.1078,0,0,1-.6525-2.1379v-34.702a11.7688,11.7688,0,0,0,6.3466,1.5925v29.9795H629.713a75.4527,75.4527,0,0,0,11.3972.2791,78.8279,78.8279,0,0,0,28.1026-5.3459,75.2011,75.2011,0,0,0,22.9926-14.0162,65.7076,65.7076,0,0,0,15.525-20.6978,57.9564,57.9564,0,0,0,5.6979-25.42,59.1047,59.1047,0,0,0-5.6979-25.5982A65.79,65.79,0,0,0,692.304,518.723a73.6692,73.6692,0,0,0-22.9929-14.0163,76.9958,76.9958,0,0,0-28.2009-5.1673q-5.6976,0-11.3972.0895c-3.8.0587-7.5984.0891-10.9114.0891v30.86a35.9284,35.9284,0,0,0-6.3466,1.84V499.799H598.4924v32.1868a38.6394,38.6394,0,0,0-6.3466-1.5588V497.223a7.96,7.96,0,0,1,1.3105-2.1378,2.6883,2.6883,0,0,1,2.2592-.8045H641.11a82.13,82.13,0,0,1,55.4187,20.76,72.063,72.063,0,0,1,16.8024,22.6289,63.4768,63.4768,0,0,1,6.19,27.6178Zm-121.029,34.0553a12.68,12.68,0,0,1-6.3466-.202v35.3948a3.0188,3.0188,0,0,0,.8194,2.0424,2.8478,2.8478,0,0,0,2.2518.9278q3.2757,0,3.2754-2.97Z" transform="translate(-173.5371 -460.2513)" style="fill-rule:evenodd"/><path d="M596.7181,538.2744c-7.3189-3.2818-15.1312-1.5349-17.8431,5.8118-2.4973,6.7633.2278,17.0557,3.2032,25.4841-6.6526-1.2811-11.66-4.1528-13.7122-8.4568-2.0254-4.2442-.8416-9.1811,2.7687-13.9606-6.936,6.5106-9.9063,13.5612-7.1507,19.3368,6.6585,13.9694,37.6374,9.6469,50.9592,5.0783,23.0383-7.9008,37.5777-22.98,32.474-33.6853-2.753-5.776-10.6687-9.095-20.9913-9.6872,6.5154,1.3084,11.41,4.1593,13.4357,8.4039,4.6442,9.7413-7.595,23.1251-27.3386,29.8949a67.7654,67.7654,0,0,1-23.0734,3.8294,70.6669,70.6669,0,0,0,17.7965-3.9219c13.2379-4.7265,23.0277-12.4141,26.5465-19.8871a21.7092,21.7092,0,0,0-.74-2.4285c-2.712-7.3455-10.5242-9.0936-17.8431-5.8118C606.6858,542.0966,605.2423,542.0966,596.7181,538.2744Z" transform="translate(-173.5371 -460.2513)" style="fill-rule:evenodd;fill:url(#GradientFill_1)"/><path d="M633.5237,565.1518s-7.8542,22.2914-25.4441,10.45C608.08,575.6021,625.0871,579.7387,633.5237,565.1518Z" transform="translate(-173.5371 -460.2513)" style="fill-rule:evenodd;fill:url(#GradientFill_1-2)"/><path d="M631.018,574.5518s-7.3477,17.4535-20.68,7.2832C610.338,581.835,623.5983,585.8357,631.018,574.5518Z" transform="translate(-173.5371 -460.2513)" style="fill-rule:evenodd;fill:url(#GradientFill_1-3)"/><path d="M627.5555,582.4122s-6.1384,12.5965-15.4564,4.6293C612.0991,587.0415,621.6331,590.462,627.5555,582.4122Z" transform="translate(-173.5371 -460.2513)" style="fill-rule:evenodd;fill:url(#GradientFill_1-4)"/><path d="M624.4856,588.5776s-4.13,9.36-10.4,3.3886C614.0859,591.9662,620.5009,594.5506,624.4856,588.5776Z" transform="translate(-173.5371 -460.2513)" style="fill-rule:evenodd;fill:url(#GradientFill_1-5)"/><path d="M585.4183,582.0267s8.3993,12.5727,19.932-2.0879C605.35,579.9388,593.3373,589.0434,585.4183,582.0267Z" transform="translate(-173.5371 -460.2513)" style="fill-rule:evenodd;fill:url(#GradientFill_1-6)"/><path d="M588.7232,587.2136s7.3384,8.83,14.8326-1.9159C603.5558,585.2977,595.2509,592.0741,588.7232,587.2136Z" transform="translate(-173.5371 -460.2513)" style="fill-rule:evenodd;fill:url(#GradientFill_1-7)"/><path d="M590.8774,590.7266s5.0147,7.2256,10.1053.0653C600.9827,590.7919,595.3339,594.9511,590.8774,590.7266Z" transform="translate(-173.5371 -460.2513)" style="fill-rule:evenodd;fill:url(#GradientFill_1-8)"/><path d="M583.3412,577.6746s9.0008,12.0961,22.3585-2.1052C605.7,575.5694,591.9794,584.4118,583.3412,577.6746Z" transform="translate(-173.5371 -460.2513)" style="fill-rule:evenodd;fill:url(#GradientFill_1-9)"/></svg>